<svg xmlns="http://www.w3.org/2000/svg" width="32" height="32"><path fill="#fff" d="m30.348 19.934-1.794-8.91c-.521-2.546-3.066-4.397-5.612-3.876a4.52 4.52 0 0 0-2.256 1.215c-.347.347-.81.521-1.331.521h-6.769c-.521 0-.984-.174-1.331-.521a4.53 4.53 0 0 0-2.256-1.215c-2.546-.521-5.091 1.331-5.612 3.876l-1.736 8.91c-.521 2.488.984 5.034 3.413 5.612.347.116.752.116 1.099.116 2.199 0 4.108-1.562 4.571-3.761.405-2.141 2.314-3.703 4.513-3.703h1.389c2.199 0 4.108 1.562 4.513 3.703.463 2.199 2.372 3.761 4.571 3.761.347 0 .752-.058 1.099-.116 2.546-.579 4.05-3.124 3.529-5.612z"/><path fill="none" stroke="#000" stroke-linejoin="round" stroke-linecap="round" stroke-miterlimit="10" stroke-width=".86" d="m30.348 19.876-1.794-8.91c-.521-2.546-3.066-4.397-5.612-3.876a4.52 4.52 0 0 0-2.256 1.215c-.347.347-.81.521-1.331.521h-6.769c-.521 0-.984-.174-1.331-.521A4.53 4.53 0 0 0 8.999 7.09c-2.546-.521-5.091 1.331-5.612 3.876l-1.736 8.91c-.521 2.488.984 5.034 3.413 5.612.347.116.752.116 1.099.116 2.199 0 4.108-1.562 4.571-3.761v0c.405-2.141 2.314-3.703 4.513-3.703h1.389c2.199 0 4.108 1.562 4.513 3.703v0c.463 2.199 2.372 3.761 4.571 3.761.347 0 .752-.058 1.099-.116 2.546-.579 4.05-3.124 3.529-5.612z"/><path fill="none" stroke="#000" stroke-linejoin="round" stroke-linecap="round" stroke-miterlimit="10" stroke-width=".86" d="M11.777 13.512a2.777 2.777 0 1 1-5.553 0 2.777 2.777 0 0 1 5.553 0zm-2.778-.983v1.909m.926-.926H8.074m16.315-1.909a.926.926 0 1 1-1.852 0 .926.926 0 0 1 1.852 0zm0 4.686a.926.926 0 1 1-1.852 0 .926.926 0 0 1 1.852 0zm2.314-2.314a.926.926 0 1 1-1.852 0 .926.926 0 0 1 1.852 0zm-4.628 0a.926.926 0 1 1-1.852 0 .926.926 0 0 1 1.852 0zm-8.389 1.389v-.926h4.629v.926"/></svg>